<?xml version="1.0" standalone="no"?>
<!DOCTYPE svg PUBLIC "-//W3C//DTD SVG 20010904//EN"
 "http://www.w3.org/TR/2001/REC-SVG-20010904/DTD/svg10.dtd">
<svg version="1.0" xmlns="http://www.w3.org/2000/svg"
 width="1280.000000pt" height="896.000000pt" viewBox="0 0 1280.000000 896.000000"
 preserveAspectRatio="xMidYMid meet">
<metadata>
Created by potrace 1.15, written by Peter Selinger 2001-2017
</metadata>
<g transform="translate(0.000000,896.000000) scale(0.100000,-0.100000)"
fill="#000000" stroke="none">
<path d="M5145 8945 c-225 -46 -373 -109 -477 -204 -189 -174 -211 -458 -49
-634 81 -89 77 -81 122 -228 47 -154 78 -219 143 -306 51 -67 106 -116 152
-134 16 -6 58 -10 93 -10 47 1 70 -4 83 -15 26 -24 32 -75 15 -117 -47 -111
-66 -345 -38 -457 21 -83 48 -138 166 -339 60 -102 149 -271 199 -375 l91
-191 0 -245 c0 -163 -6 -297 -18 -400 -9 -85 -24 -283 -32 -440 -15 -272 -25
-356 -61 -480 -14 -48 -27 -66 -112 -148 -54 -52 -146 -138 -207 -191 -95 -84
-128 -106 -245 -164 -267 -130 -669 -394 -790 -518 -36 -37 -103 -98 -149
-137 l-85 -70 -50 20 c-28 11 -61 24 -72 28 -16 6 -31 2 -55 -14 -161 -109
-621 -368 -890 -501 l-155 -78 -90 70 c-110 86 -213 150 -324 201 -254 117
-434 118 -585 4 -66 -50 -172 -182 -247 -309 -58 -99 -91 -136 -193 -216 -74
-58 -148 -148 -251 -304 -51 -78 -140 -202 -197 -275 -128 -164 -158 -213
-243 -401 -37 -82 -79 -160 -93 -175 -43 -47 -180 -272 -241 -397 -61 -126
-150 -386 -219 -639 -23 -82 -41 -151 -41 -153 0 -1 2880 -3 6400 -3 l6400 0
0 113 0 114 -97 6 c-54 4 -376 7 -716 7 -580 0 -621 1 -671 19 -74 26 -125 63
-246 178 -196 187 -354 402 -481 660 -49 98 -82 152 -107 174 -76 67 -198 102
-278 80 -22 -6 -77 -41 -129 -82 -127 -101 -235 -170 -393 -251 -75 -38 -147
-79 -159 -90 -34 -31 -42 -76 -32 -164 11 -102 2 -120 -114 -212 -82 -67 -95
-73 -125 -68 -44 7 -78 29 -96 64 -19 37 -21 163 -11 932 7 634 7 648 -15 805
-36 261 -38 496 -5 810 47 453 54 1215 18 2111 -9 231 -14 427 -11 436 4 9 29
21 57 28 53 12 140 64 203 119 117 103 73 257 -110 386 -89 61 -136 110 -188
191 -76 118 -99 222 -144 644 -33 311 -66 426 -147 507 -74 74 -410 254 -668
356 -223 89 -446 152 -701 198 -192 35 -226 29 -634 -97 -114 -35 -216 -59
-290 -69 -63 -9 -175 -25 -249 -36 -147 -23 -194 -21 -271 12 -55 23 -91 72
-170 227 -45 88 -58 128 -95 297 -29 129 -66 248 -95 306 -34 66 -123 144
-233 204 -80 44 -146 52 -252 30z m3035 -1797 l115 -23 37 -75 c21 -41 56
-122 79 -180 23 -58 74 -170 114 -250 84 -168 155 -374 155 -452 0 -36 -35
-68 -74 -68 -29 0 -47 14 -152 123 -66 67 -134 143 -152 169 -33 47 -101 183
-120 237 -12 33 -310 372 -378 428 -24 21 -44 41 -44 47 0 5 12 25 27 44 l26
35 126 -6 c69 -4 178 -17 241 -29z m-1610 -1194 c49 -35 117 -104 144 -144 22
-34 20 -80 -9 -203 -29 -123 -30 -126 -114 -281 -155 -288 -435 -671 -484
-664 -37 5 -33 59 13 193 105 303 200 684 220 879 9 83 16 109 44 160 65 115
97 126 186 60z m1105 -1789 c42 -44 51 -74 65 -210 6 -60 24 -209 40 -330 34
-252 38 -342 26 -545 -11 -194 1 -246 98 -450 127 -266 168 -416 186 -687 6
-90 19 -213 30 -275 35 -207 77 -397 90 -413 8 -10 31 -15 69 -15 32 0 64 -6
73 -12 38 -31 54 -237 28 -363 -25 -124 -66 -163 -205 -195 -50 -11 -104 -28
-122 -36 -36 -18 -63 -67 -63 -112 0 -54 -20 -92 -60 -112 -66 -33 -323 -61
-560 -61 -226 1 -204 -2 -698 96 -232 46 -290 61 -280 71 7 6 90 63 183 126
158 107 176 116 260 137 73 18 116 37 217 96 l126 75 -20 67 c-26 86 -51 136
-131 260 -117 179 -132 218 -147 385 -29 319 -94 580 -265 1072 -66 190 -89
283 -100 402 -7 70 -7 71 26 109 18 21 65 63 104 93 177 141 494 466 635 651
93 122 223 207 324 210 32 1 44 -5 71 -34z m-2308 -777 c122 -337 193 -564
258 -828 20 -80 50 -192 67 -250 55 -189 123 -479 164 -694 43 -223 122 -302
314 -314 80 -5 87 -7 117 -38 41 -44 83 -133 89 -192 5 -44 2 -53 -60 -151
l-65 -104 -122 -71 c-67 -39 -127 -79 -133 -88 -7 -12 -7 -30 1 -60 6 -24 11
-44 10 -44 -1 -1 -42 7 -92 19 -76 18 -122 21 -295 21 -219 1 -249 -3 -578
-73 -193 -40 -391 -57 -505 -42 -97 13 -303 62 -358 85 -112 47 -246 205 -512
602 -198 298 -238 363 -322 539 -157 326 -263 487 -449 683 -33 34 -57 64 -55
65 2 2 74 19 159 37 256 54 343 82 659 217 86 36 185 85 221 108 80 51 245
189 365 305 161 156 318 262 560 380 77 37 181 91 230 120 76 44 184 96 206
99 3 1 60 -149 126 -331z"/>
</g>
</svg>
