<?xml version="1.0" standalone="no"?>
<!DOCTYPE svg PUBLIC "-//W3C//DTD SVG 20010904//EN"
 "http://www.w3.org/TR/2001/REC-SVG-20010904/DTD/svg10.dtd">
<svg version="1.0" xmlns="http://www.w3.org/2000/svg"
 width="926.000000pt" height="1280.000000pt" viewBox="0 0 926.000000 1280.000000"
 preserveAspectRatio="xMidYMid meet">
<metadata>
Created by potrace 1.15, written by Peter Selinger 2001-2017
</metadata>
<g transform="translate(0.000000,1280.000000) scale(0.100000,-0.100000)"
fill="#000000" stroke="none">
<path d="M190 12791 c-69 -21 -130 -73 -166 -141 -18 -34 -19 -208 -19 -6250
0 -6042 1 -6216 19 -6250 26 -49 74 -98 121 -123 l40 -22 4445 0 c4316 0 4446
1 4480 19 49 26 98 74 123 121 l22 40 0 6215 0 6215 -22 40 c-25 47 -74 95
-123 121 -34 18 -165 19 -4465 21 -2436 1 -4441 -2 -4455 -6z m8550 -6391 l0
-5880 -4110 0 -4110 0 0 5880 0 5880 4110 0 4110 0 0 -5880z"/>
<path d="M8349 11333 l-108 -106 -49 46 c-27 25 -74 58 -103 73 -50 26 -63 29
-164 29 -102 0 -115 -2 -170 -29 -292 -144 -291 -559 2 -703 53 -25 68 -28
163 -28 99 0 109 2 172 33 160 78 249 263 208 432 l-13 52 117 117 c77 77 116
124 116 138 0 20 -33 53 -54 53 -5 0 -58 -48 -117 -107z m-348 -63 c45 -13
111 -56 140 -93 l22 -29 -104 -104 -104 -104 -85 85 c-62 62 -92 85 -111 85
-32 0 -49 -17 -49 -49 0 -37 204 -241 240 -241 19 0 53 28 134 109 61 61 114
107 119 104 14 -9 -1 -112 -24 -159 -50 -104 -163 -170 -274 -161 -246 19
-355 309 -181 482 75 74 179 102 277 75z"/>
<path d="M1050 11148 c-135 -69 -127 -260 13 -313 38 -14 310 -15 2962 -13
l2920 3 35 22 c55 34 83 92 78 162 -5 70 -32 111 -91 140 l-43 21 -2915 0
-2915 0 -44 -22z"/>
<path d="M8343 10018 l-102 -102 -43 40 c-92 85 -186 119 -302 112 -100 -7
-180 -44 -251 -119 -63 -66 -88 -116 -104 -204 -30 -165 63 -342 214 -411 159
-73 328 -42 448 82 86 88 126 234 97 354 l-13 52 117 117 c114 115 131 142
104 169 -30 30 -62 13 -165 -90z m-305 -78 c27 -12 67 -39 88 -61 l38 -39
-107 -108 -107 -107 -90 90 c-84 84 -91 88 -117 79 -21 -7 -29 -17 -31 -39 -3
-27 11 -43 111 -143 63 -61 122 -112 132 -112 10 0 68 50 130 110 61 61 115
110 119 110 16 0 -5 -115 -30 -167 -29 -61 -68 -97 -143 -131 -45 -21 -64 -24
-125 -20 -44 3 -86 13 -111 26 -48 24 -106 83 -130 132 -23 44 -31 156 -16
202 56 169 228 247 389 178z"/>
<path d="M1086 9849 c-126 -30 -177 -181 -93 -276 60 -68 -158 -63 2660 -63
l2564 0 43 23 c119 63 117 239 -3 305 -30 16 -175 17 -2582 19 -1540 0 -2566
-3 -2589 -8z"/>
<path d="M8341 8706 l-103 -103 -45 44 c-110 110 -297 141 -438 73 -151 -73
-244 -253 -214 -416 23 -127 122 -250 237 -295 43 -17 78 -23 147 -23 81 -1
97 2 157 31 129 61 216 185 226 324 2 37 -1 89 -7 115 l-12 47 115 117 c118
119 132 143 100 174 -32 32 -57 19 -163 -88z m-293 -82 c28 -14 65 -41 83 -61
l31 -36 -106 -106 -105 -105 -89 87 c-49 48 -95 87 -102 87 -21 0 -50 -31 -50
-54 0 -32 208 -246 239 -246 17 0 56 32 136 110 61 61 115 110 119 110 14 0
-1 -105 -22 -152 -47 -107 -143 -170 -259 -170 -110 1 -197 51 -248 143 -27
48 -30 63 -30 139 0 95 18 141 77 200 81 82 223 105 326 54z"/>
<path d="M1045 8520 c-118 -59 -125 -228 -11 -295 l43 -25 2654 0 2654 0 39
23 c46 26 86 93 86 145 0 56 -36 119 -84 147 l-43 25 -2649 0 c-2626 0 -2649
0 -2689 -20z"/>
<path d="M7864 7440 c-216 -31 -364 -245 -319 -461 36 -175 176 -297 355 -307
96 -5 166 14 240 65 195 136 227 407 68 579 -91 99 -213 143 -344 124z m195
-135 c95 -52 144 -137 145 -250 0 -87 -31 -153 -100 -214 -88 -78 -203 -90
-314 -34 -177 91 -203 335 -49 467 59 50 110 66 195 62 54 -2 82 -9 123 -31z"/>
<path d="M1045 7207 c-46 -26 -82 -75 -91 -124 -15 -79 44 -171 123 -192 29
-8 840 -10 2874 -9 l2834 3 36 23 c119 73 110 246 -15 303 -40 18 -138 19
-2881 19 l-2840 0 -40 -23z"/>
<path d="M7815 6117 c-193 -64 -306 -241 -275 -430 51 -319 444 -442 663 -208
182 195 120 508 -122 619 -67 31 -200 40 -266 19z m192 -102 c64 -19 143 -88
174 -152 28 -60 31 -168 6 -226 -60 -139 -215 -209 -358 -162 -70 24 -149 101
-172 169 -78 228 122 439 350 371z"/>
<path d="M1065 5905 c-49 -17 -90 -61 -106 -114 -22 -75 13 -157 86 -198 l40
-23 2900 0 c2807 0 2901 1 2941 19 143 65 121 282 -32 320 -30 8 -890 11
-2916 11 -2450 -1 -2879 -3 -2913 -15z"/>
<path d="M8341 4766 l-103 -103 -45 44 c-24 25 -74 59 -111 76 -60 29 -76 32
-157 31 -117 -1 -184 -26 -263 -99 -201 -186 -156 -507 89 -629 197 -99 427
-18 522 182 35 75 46 175 28 248 l-12 47 115 117 c64 64 116 125 116 134 0 33
-20 56 -48 56 -21 0 -50 -23 -131 -104z m-300 -78 c25 -11 64 -37 85 -59 l38
-39 -107 -108 -107 -107 -88 88 c-48 48 -95 87 -104 87 -23 0 -48 -27 -48 -53
0 -28 216 -247 244 -247 11 0 67 47 131 110 61 61 115 110 119 110 14 0 -3
-109 -23 -155 -46 -104 -142 -165 -258 -165 -81 0 -140 24 -196 78 -57 54 -79
105 -85 190 -4 66 -2 78 28 138 69 141 221 195 371 132z"/>
<path d="M1033 4575 c-70 -42 -101 -133 -69 -208 17 -43 78 -95 118 -102 18
-3 1347 -4 2954 -3 l2921 3 36 28 c49 37 67 75 67 140 0 60 -23 104 -73 141
l-28 21 -2942 2 -2942 3 -42 -25z"/>
<path d="M8341 3455 l-106 -104 -44 44 c-85 86 -210 126 -330 105 -317 -55
-436 -441 -204 -661 71 -67 147 -101 240 -107 260 -17 461 222 402 477 l-10
45 116 116 c73 73 115 123 115 136 0 25 -29 54 -55 54 -10 0 -66 -47 -124
-105z m-297 -80 c22 -10 57 -36 80 -57 l40 -39 -107 -107 -107 -107 -83 83
c-60 59 -89 82 -108 82 -32 0 -49 -17 -49 -49 0 -35 205 -241 241 -241 18 0
54 29 134 110 60 61 114 110 119 110 15 0 -1 -105 -24 -157 -64 -146 -239
-210 -383 -139 -65 31 -100 69 -135 145 -21 45 -24 64 -20 125 3 39 13 87 22
106 35 68 105 128 176 151 43 14 162 5 204 -16z"/>
<path d="M1055 3276 c-129 -56 -136 -251 -11 -310 31 -15 275 -16 2886 -16
2435 0 2855 2 2878 14 129 67 128 248 -2 310 -31 15 -277 16 -2878 16 -2327
-1 -2848 -3 -2873 -14z"/>
<path d="M7795 2172 c-248 -88 -338 -389 -180 -604 41 -56 108 -103 183 -130
45 -16 75 -19 143 -16 112 5 194 43 268 123 70 77 95 146 95 260 0 70 -5 103
-23 147 -31 80 -106 159 -189 200 -58 29 -78 33 -157 36 -66 2 -103 -2 -140
-16z m229 -102 c110 -42 180 -145 180 -265 0 -113 -62 -211 -164 -259 -69 -32
-179 -29 -246 6 -96 50 -154 145 -154 253 0 201 195 335 384 265z"/>
<path d="M1054 1961 c-133 -60 -136 -242 -4 -308 l44 -23 2586 0 c2492 0 2586
1 2625 19 142 65 142 247 0 312 -39 18 -133 19 -2625 19 -2495 0 -2586 -1
-2626 -19z"/>
</g>
</svg>
